<svg width="50" height="48" viewBox="0 0 50 48" fill="none" xmlns="http://www.w3.org/2000/svg">
<path d="M47.5 24C47.5 36.9787 36.9787 47.5 24 47.5C11.0213 47.5 0.5 36.9787 0.5 24C0.5 11.0213 11.0213 0.5 24 0.5C36.9787 0.5 47.5 11.0213 47.5 24Z" fill="white" stroke="#6366F1"/>
<path d="M24.5526 39C31.0075 39 36.239 35.2372 36.239 28.9387C36.239 23.0082 31.6615 18.8773 24.5316 18.8773V23.2332C21.2408 23.2332 18.836 21.8426 18.836 18.9591C18.836 16.0757 20.9244 14.3783 24.7002 14.3783C27.8012 14.3783 29.6787 15.6258 30.1426 17.2617H35.8804C35.4373 12.7014 31.0075 9 24.5737 9C17.7812 9 12.9506 13.1104 12.9506 19.1227C12.9506 25.1349 17.9711 28.7341 24.5316 28.7341V24.5828C28.0121 24.5828 30.3958 26.0961 30.3958 29.0409C30.3958 31.9857 27.9488 33.6421 24.5526 33.6421C21.4939 33.6421 19.3634 32.3333 18.7095 30.5337H12.7607C13.6045 35.278 18.0976 39 24.5526 39Z" fill="#6366F1"/>
<path d="M49.5 8C49.5 12.1421 46.1421 15.5 42 15.5C37.8579 15.5 34.5 12.1421 34.5 8C34.5 3.85786 37.8579 0.5 42 0.5C46.1421 0.5 49.5 3.85786 49.5 8Z" fill="white" stroke="#6366F1"/>
<path d="M37.5739 11V5.18182H38.6278V10.1165H41.1903V11H37.5739ZM42.1051 11V5.18182H44.2869C44.7339 5.18182 45.1089 5.26515 45.4119 5.43182C45.7169 5.59848 45.947 5.82765 46.1023 6.11932C46.2595 6.40909 46.3381 6.73864 46.3381 7.10795C46.3381 7.48106 46.2595 7.8125 46.1023 8.10227C45.9451 8.39205 45.7131 8.62027 45.4062 8.78693C45.0994 8.9517 44.7216 9.03409 44.2727 9.03409H42.8267V8.16761H44.1307C44.392 8.16761 44.6061 8.12216 44.7727 8.03125C44.9394 7.94034 45.0625 7.81534 45.142 7.65625C45.2235 7.49716 45.2642 7.31439 45.2642 7.10795C45.2642 6.90152 45.2235 6.7197 45.142 6.5625C45.0625 6.4053 44.9384 6.28314 44.7699 6.19602C44.6032 6.10701 44.3883 6.0625 44.125 6.0625H43.1591V11H42.1051Z" fill="#6366F1"/>
</svg>