<svg width="36" height="36" viewBox="0 0 36 36" fill="none" xmlns="http://www.w3.org/2000/svg">
<path d="M18 36C27.9411 36 36 27.9411 36 18C36 8.05887 27.9411 0 18 0C8.05887 0 0 8.05887 0 18C0 27.9411 8.05887 36 18 36Z" fill="#10B981"/>
<path d="M18.0359 28C22.4348 28 26 25.4915 26 21.2924C26 17.3388 22.8805 14.5849 18.0216 14.5849V17.4888C15.779 17.4888 14.1402 16.5617 14.1402 14.6394C14.1402 12.7171 15.5634 11.5855 18.1365 11.5855C20.2498 11.5855 21.5292 12.4172 21.8454 13.5078H25.7556C25.4537 10.4676 22.4348 8 18.0503 8C13.4213 8 10.1294 10.7403 10.1294 14.7484C10.1294 18.7566 13.5508 21.1561 18.0216 21.1561V18.3885C20.3935 18.3885 22.018 19.3974 22.018 21.3606C22.018 23.3238 20.3504 24.4281 18.0359 24.4281C15.9515 24.4281 14.4996 23.5556 14.054 22.3558H10C10.575 25.5187 13.637 28 18.0359 28Z" fill="white"/>
</svg>
