<svg viewBox="0 0 32 32" fill="none" xmlns="http://www.w3.org/2000/svg" class="h-5 md:h-6"
    preserveAspectRatio="xMidYMid meet">
    <path fill-rule="evenodd" clip-rule="evenodd"
        d="M7.61423 12.1676H12.1929V7.58893C12.1929 5.05929 10.1439 3.01028 7.61423 3.01028C5.08459 3.01028 3.03557 5.05929 3.03557 7.58893C3.03557 10.1186 5.10988 12.1676 7.61423 12.1676ZM15.2538 24.3858V19.8071H24.4111C26.9407 19.8071 28.9897 21.8561 28.9897 24.3858C28.9897 26.9154 26.9407 28.9644 24.4111 28.9644C21.8814 28.9644 19.8324 26.9154 19.8324 24.3858V21.3249H16.7715V24.3858C16.7715 28.585 20.1866 32 24.3858 32C28.585 32 32 28.585 32 24.3858C32 20.1866 28.585 16.7715 24.3858 16.7715H15.2285V15.2538H24.3858C28.585 15.2538 32 11.8387 32 7.63953C32 3.44032 28.585 0 24.3858 0C20.1866 0 16.7715 3.41502 16.7715 7.61423V10.6751H19.8324V7.61423C19.8324 5.08459 21.8814 3.03557 24.4111 3.03557C26.9407 3.03557 28.9897 5.08459 28.9897 7.61423C28.9897 10.1439 26.9407 12.1929 24.4111 12.1929H15.2538V7.61423C15.2538 3.41502 11.8387 0 7.61423 0C3.38972 0 0 3.41502 0 7.61423C0 11.8134 3.41502 15.2285 7.61423 15.2285H12.1929V16.7462H7.61423C3.38972 16.7462 0 20.1613 0 24.3605C0 28.5597 3.41502 32 7.61423 32C11.8387 32 15.2538 28.585 15.2538 24.3858ZM3.06087 24.3858C3.06087 26.9154 5.10988 28.9644 7.63953 28.9644C10.1692 28.9644 12.2182 26.9154 12.2182 24.3858V19.8071H7.63953C5.10988 19.8071 3.06087 21.8561 3.06087 24.3858Z"
        fill="url(#paint0_linear_1_94)"></path>
    <defs>
        <linearGradient id="paint0_linear_1_94" x1="29.7881" y1="2.21147" x2="2.23092" y2="29.7686"
            gradientUnits="userSpaceOnUse">
            <stop stop-color="#B94DFF"></stop>
            <stop offset="0.700148" stop-color="#7C4DFF"></stop>
        </linearGradient>
    </defs>
</svg>