<svg width="50" height="48" viewBox="0 0 50 48" fill="none" xmlns="http://www.w3.org/2000/svg">
<path d="M47.5 24C47.5 36.9787 36.9787 47.5 24 47.5C11.0213 47.5 0.5 36.9787 0.5 24C0.5 11.0213 11.0213 0.5 24 0.5C36.9787 0.5 47.5 11.0213 47.5 24Z" fill="white" stroke="#6366F1"/>
<path d="M24.5526 39C31.0075 39 36.239 35.2372 36.239 28.9387C36.239 23.0082 31.6615 18.8773 24.5316 18.8773V23.2332C21.2408 23.2332 18.836 21.8426 18.836 18.9591C18.836 16.0757 20.9244 14.3783 24.7002 14.3783C27.8012 14.3783 29.6787 15.6258 30.1426 17.2617H35.8804C35.4373 12.7014 31.0075 9 24.5737 9C17.7812 9 12.9506 13.1104 12.9506 19.1227C12.9506 25.1349 17.9711 28.7341 24.5316 28.7341V24.5828C28.0121 24.5828 30.3958 26.0961 30.3958 29.0409C30.3958 31.9857 27.9488 33.6421 24.5526 33.6421C21.4939 33.6421 19.3634 32.3333 18.7095 30.5337H12.7607C13.6045 35.278 18.0976 39 24.5526 39Z" fill="#6366F1"/>
<path d="M49.5 40C49.5 44.1421 46.1421 47.5 42 47.5C37.8579 47.5 34.5 44.1421 34.5 40C34.5 35.8579 37.8579 32.5 42 32.5C46.1421 32.5 49.5 35.8579 49.5 40Z" fill="white" stroke="#6366F1"/>
<path d="M37.5739 43V37.1818H39.8011C40.2216 37.1818 40.571 37.2481 40.8494 37.3807C41.1297 37.5114 41.339 37.6903 41.4773 37.9176C41.6174 38.1449 41.6875 38.4025 41.6875 38.6903C41.6875 38.9271 41.642 39.1297 41.5511 39.2983C41.4602 39.465 41.3381 39.6004 41.1847 39.7045C41.0312 39.8087 40.8598 39.8835 40.6705 39.929V39.9858C40.8769 39.9972 41.0748 40.0606 41.2642 40.1761C41.4555 40.2898 41.6117 40.4508 41.733 40.6591C41.8542 40.8674 41.9148 41.1193 41.9148 41.4148C41.9148 41.7159 41.8419 41.9867 41.696 42.2273C41.5502 42.4659 41.3305 42.6544 41.0369 42.7926C40.7434 42.9309 40.3741 43 39.929 43H37.5739ZM38.6278 42.1193H39.7614C40.1439 42.1193 40.4195 42.0464 40.5881 41.9006C40.7585 41.7528 40.8438 41.5634 40.8438 41.3324C40.8438 41.16 40.8011 41.0047 40.7159 40.8665C40.6307 40.7263 40.5095 40.6165 40.3523 40.5369C40.1951 40.4555 40.0076 40.4148 39.7898 40.4148H38.6278V42.1193ZM38.6278 39.6562H39.6705C39.8523 39.6562 40.0161 39.6231 40.1619 39.5568C40.3078 39.4886 40.4223 39.393 40.5057 39.2699C40.5909 39.1449 40.6335 38.9972 40.6335 38.8267C40.6335 38.6013 40.554 38.4157 40.3949 38.2699C40.2377 38.1241 40.0038 38.0511 39.6932 38.0511H38.6278V39.6562ZM42.576 38.0653V37.1818H47.218V38.0653H45.4197V43H44.3743V38.0653H42.576Z" fill="#6366F1"/>
</svg>
