<svg xmlns="http://www.w3.org/2000/svg" width="43" height="48" viewBox="0 0 43 48" fill="none">
    <path
        d="M36.9708 16.6977C30.3042 12.8485 35.0842 4.82375 39.7484 0L15.0029 25.5923C13.9334 26.6984 12.2484 26.9347 10.9159 26.1654C7.9378 24.446 6.91744 20.6379 8.63684 17.6598L9.48591 16.1891C11.046 13.487 14.3257 12.3966 17.1447 13.5021L26.3204 4.0124C24.9685 5.4106 21.7744 7.92393 19.8136 6.79184C14.3988 3.66564 7.47506 5.52086 4.34886 10.9356L1.51861 15.8377C-1.60759 21.2525 0.24764 28.1762 5.66237 31.3024C12.3293 35.1516 7.54907 43.1764 2.88492 48L27.6304 22.4078C28.7 21.3017 30.3849 21.0654 31.7174 21.8348C34.6956 23.5542 35.7159 27.3622 33.9965 30.3404L33.1475 31.811C31.5874 34.5131 28.3078 35.6036 25.4886 34.4981L16.313 43.9876C17.6649 42.5894 20.8589 40.0762 22.8198 41.2083C28.2345 44.3346 35.1584 42.4793 38.2844 37.0645L41.1146 32.1623C44.2409 26.7477 42.3857 19.8239 36.9708 16.6977Z"
        fill="white" />
</svg>